<svg width="628" height="249" viewBox="0 0 628 249" fill="none" xmlns="http://www.w3.org/2000/svg">
<g filter="url(#filter0_d_142_2)">
<rect x="50" y="78" width="91" height="29" rx="14.5" fill="#CD852F"/>
<rect x="487" y="78" width="91" height="29" rx="14.5" fill="#CD852F"/>
<g filter="url(#filter1_d_142_2)">
<rect x="121" y="30" width="390" height="139" rx="28" fill="url(#paint0_linear_142_2)"/>
</g>
<path d="M219.135 106.592C220.159 106.944 221.055 107.2 221.823 107.36C222.623 107.488 223.615 107.552 224.799 107.552C226.591 107.552 228.063 107.184 229.215 106.448C230.399 105.712 231.263 104.784 231.807 103.664C232.383 102.512 232.671 101.312 232.671 100.064C232.671 98.176 232.111 96.656 230.991 95.504C229.871 94.32 227.887 93.728 225.039 93.728H220.575C220.351 93.728 220.175 93.6 220.047 93.344C219.919 93.088 219.855 92.784 219.855 92.432C219.855 92.08 219.919 91.776 220.047 91.52C220.175 91.232 220.351 91.088 220.575 91.088H225.087C229.503 91.088 231.711 88.864 231.711 84.416C231.711 82.624 231.103 81.184 229.887 80.096C228.671 78.976 227.007 78.416 224.895 78.416C223.071 78.416 221.375 78.592 219.807 78.944V81.632C219.807 82.752 219.567 83.552 219.087 84.032C218.639 84.512 217.951 84.752 217.023 84.752C216.319 84.752 215.791 84.56 215.439 84.176C215.119 83.792 214.959 83.184 214.959 82.352V79.616C214.959 78.912 215.087 78.416 215.343 78.128C215.631 77.808 216.159 77.52 216.927 77.264C219.775 76.4 222.751 75.968 225.855 75.968C229.695 75.968 232.511 76.768 234.303 78.368C236.095 79.936 236.991 81.952 236.991 84.416C236.991 86.528 236.431 88.208 235.311 89.456C234.223 90.672 232.799 91.552 231.039 92.096V92.384C235.743 93.12 238.095 95.68 238.095 100.064C238.095 101.728 237.647 103.312 236.751 104.816C235.855 106.32 234.431 107.568 232.479 108.56C230.527 109.52 228.047 110 225.039 110C223.439 110 221.855 109.872 220.287 109.616C218.719 109.328 217.343 108.944 216.159 108.464C215.423 108.144 214.927 107.856 214.671 107.6C214.415 107.312 214.287 106.832 214.287 106.16V103.28C214.287 101.744 214.975 100.976 216.351 100.976C217.279 100.976 217.967 101.216 218.415 101.696C218.895 102.144 219.135 102.912 219.135 104V106.592ZM258.721 105.44C257.665 107.008 256.449 108.16 255.073 108.896C253.729 109.632 252.129 110 250.273 110C247.905 110 246.097 109.424 244.849 108.272C243.633 107.088 243.025 105.504 243.025 103.52C243.025 101.088 243.921 99.088 245.713 97.52C247.537 95.92 250.673 95.12 255.121 95.12H258.625V93.776C258.625 91.6 258.241 90.064 257.473 89.168C256.737 88.272 255.521 87.824 253.825 87.824C252.225 87.824 250.817 88.496 249.601 89.84C248.577 90.96 247.601 91.52 246.673 91.52C246.129 91.52 245.713 91.376 245.425 91.088C245.137 90.768 244.993 90.368 244.993 89.888C244.993 89.28 245.217 88.768 245.665 88.352C246.113 87.936 246.769 87.552 247.633 87.2C248.657 86.784 249.809 86.464 251.089 86.24C252.401 86.016 253.633 85.904 254.785 85.904C257.089 85.904 258.881 86.224 260.161 86.864C261.473 87.504 262.385 88.448 262.897 89.696C263.409 90.944 263.665 92.576 263.665 94.592V107.744C263.665 108.512 263.537 109.088 263.281 109.472C263.025 109.824 262.529 110 261.793 110C260.737 110 259.985 109.648 259.537 108.944C259.089 108.208 258.865 107.056 258.865 105.488L258.721 105.44ZM255.889 97.136C250.641 97.136 248.017 99.04 248.017 102.848C248.017 105.472 249.409 106.784 252.193 106.784C253.057 106.784 253.985 106.576 254.977 106.16C256.001 105.712 256.865 105.072 257.569 104.24C258.305 103.376 258.673 102.352 258.673 101.168V97.136H255.889ZM277.58 96.224L285.98 87.872C286.716 87.168 287.34 86.672 287.852 86.384C288.396 86.064 288.956 85.904 289.532 85.904C289.98 85.904 290.316 86.016 290.54 86.24C290.764 86.464 290.876 86.752 290.876 87.104C290.876 87.68 290.652 88.192 290.204 88.64C289.756 89.088 289.004 89.664 287.948 90.368C286.892 91.04 285.836 91.824 284.78 92.72C283.596 93.744 282.54 94.704 281.612 95.6L280.748 96.416L290.204 107.552C290.78 108.224 291.068 108.736 291.068 109.088C291.068 109.376 290.924 109.6 290.636 109.76C290.348 109.92 289.724 110 288.764 110C287.708 110 286.94 109.888 286.46 109.664C285.98 109.44 285.532 109.056 285.116 108.512L277.148 98.48H275.996V106.592C275.996 107.968 275.756 108.88 275.276 109.328C274.828 109.776 274.044 110 272.924 110C272.188 110 271.676 109.824 271.388 109.472C271.132 109.088 271.004 108.512 271.004 107.744V88.16C271.004 87.392 271.132 86.832 271.388 86.48C271.676 86.096 272.188 85.904 272.924 85.904C274.012 85.904 274.796 86.208 275.276 86.816C275.756 87.424 275.996 88.432 275.996 89.84V96.224H277.58ZM309.768 105.44C308.712 107.008 307.496 108.16 306.12 108.896C304.776 109.632 303.176 110 301.32 110C298.952 110 297.144 109.424 295.896 108.272C294.68 107.088 294.072 105.504 294.072 103.52C294.072 101.088 294.968 99.088 296.76 97.52C298.584 95.92 301.72 95.12 306.168 95.12H309.672V93.776C309.672 91.6 309.288 90.064 308.52 89.168C307.784 88.272 306.568 87.824 304.872 87.824C303.272 87.824 301.864 88.496 300.648 89.84C299.624 90.96 298.648 91.52 297.72 91.52C297.176 91.52 296.76 91.376 296.472 91.088C296.184 90.768 296.04 90.368 296.04 89.888C296.04 89.28 296.264 88.768 296.712 88.352C297.16 87.936 297.816 87.552 298.68 87.2C299.704 86.784 300.856 86.464 302.136 86.24C303.448 86.016 304.68 85.904 305.832 85.904C308.136 85.904 309.928 86.224 311.208 86.864C312.52 87.504 313.432 88.448 313.944 89.696C314.456 90.944 314.712 92.576 314.712 94.592V107.744C314.712 108.512 314.584 109.088 314.328 109.472C314.072 109.824 313.576 110 312.84 110C311.784 110 311.032 109.648 310.584 108.944C310.136 108.208 309.912 107.056 309.912 105.488L309.768 105.44ZM306.936 97.136C301.688 97.136 299.064 99.04 299.064 102.848C299.064 105.472 300.456 106.784 303.24 106.784C304.104 106.784 305.032 106.576 306.024 106.16C307.048 105.712 307.912 105.072 308.616 104.24C309.352 103.376 309.72 102.352 309.72 101.168V97.136H306.936ZM323.683 105.248C324.131 106.24 324.723 106.96 325.459 107.408C326.195 107.856 327.379 108.08 329.011 108.08C332.403 108.08 334.099 106.4 334.099 103.04C334.099 101.44 333.539 100.32 332.419 99.68C331.331 99.008 329.971 98.672 328.339 98.672H325.459C325.139 98.672 324.899 98.56 324.739 98.336C324.611 98.08 324.547 97.792 324.547 97.472C324.547 96.8 324.851 96.464 325.459 96.464H328.435C329.939 96.464 331.107 96.064 331.939 95.264C332.771 94.464 333.187 93.312 333.187 91.808C333.187 90.592 332.803 89.632 332.035 88.928C331.299 88.192 330.291 87.824 329.011 87.824C327.891 87.824 326.979 88.064 326.275 88.544C325.603 89.024 325.043 89.648 324.595 90.416C324.243 91.024 323.859 91.488 323.443 91.808C323.059 92.096 322.547 92.24 321.907 92.24C321.427 92.24 321.011 92.08 320.659 91.76C320.339 91.44 320.179 91.024 320.179 90.512C320.179 89.808 320.403 89.216 320.851 88.736C321.331 88.224 321.971 87.744 322.771 87.296C323.475 86.912 324.451 86.592 325.699 86.336C326.947 86.048 328.067 85.904 329.059 85.904C335.171 85.904 338.227 87.824 338.227 91.664C338.227 93.008 337.795 94.192 336.931 95.216C336.099 96.24 334.803 96.944 333.043 97.328V97.52C334.931 97.648 336.419 98.208 337.507 99.2C338.595 100.16 339.139 101.408 339.139 102.944C339.139 105.12 338.227 106.848 336.403 108.128C334.579 109.376 331.843 110 328.195 110C326.851 110 325.587 109.856 324.403 109.568C323.251 109.248 322.291 108.848 321.523 108.368C320.787 107.888 320.211 107.408 319.795 106.928C319.379 106.416 319.171 105.808 319.171 105.104C319.171 104.592 319.363 104.176 319.747 103.856C320.163 103.504 320.595 103.328 321.043 103.328C322.227 103.328 323.107 103.968 323.683 105.248ZM358.752 105.44C357.696 107.008 356.48 108.16 355.104 108.896C353.76 109.632 352.16 110 350.304 110C347.936 110 346.128 109.424 344.88 108.272C343.664 107.088 343.056 105.504 343.056 103.52C343.056 101.088 343.952 99.088 345.744 97.52C347.568 95.92 350.704 95.12 355.152 95.12H358.656V93.776C358.656 91.6 358.272 90.064 357.504 89.168C356.768 88.272 355.552 87.824 353.856 87.824C352.256 87.824 350.848 88.496 349.632 89.84C348.608 90.96 347.632 91.52 346.704 91.52C346.16 91.52 345.744 91.376 345.456 91.088C345.168 90.768 345.024 90.368 345.024 89.888C345.024 89.28 345.248 88.768 345.696 88.352C346.144 87.936 346.8 87.552 347.664 87.2C348.688 86.784 349.84 86.464 351.12 86.24C352.432 86.016 353.664 85.904 354.816 85.904C357.12 85.904 358.912 86.224 360.192 86.864C361.504 87.504 362.416 88.448 362.928 89.696C363.44 90.944 363.696 92.576 363.696 94.592V107.744C363.696 108.512 363.568 109.088 363.312 109.472C363.056 109.824 362.56 110 361.824 110C360.768 110 360.016 109.648 359.568 108.944C359.12 108.208 358.896 107.056 358.896 105.488L358.752 105.44ZM355.92 97.136C350.672 97.136 348.048 99.04 348.048 102.848C348.048 105.472 349.44 106.784 352.224 106.784C353.088 106.784 354.016 106.576 355.008 106.16C356.032 105.712 356.896 105.072 357.6 104.24C358.336 103.376 358.704 102.352 358.704 101.168V97.136H355.92ZM381.547 106.88C381.547 108.16 381.339 109.008 380.923 109.424C380.507 109.808 379.803 110 378.811 110C377.915 110 377.307 109.824 376.987 109.472C376.699 109.088 376.555 108.512 376.555 107.744V88.16H372.235V89.936C372.235 91.184 372.043 92.016 371.659 92.432C371.307 92.816 370.619 93.008 369.595 93.008C368.923 93.008 368.459 92.848 368.203 92.528C367.947 92.176 367.819 91.664 367.819 90.992V87.392C367.819 86.4 368.331 85.904 369.355 85.904H388.843C389.867 85.904 390.379 86.4 390.379 87.392V90.992C390.379 91.664 390.251 92.176 389.995 92.528C389.739 92.848 389.275 93.008 388.603 93.008C387.579 93.008 386.875 92.816 386.491 92.432C386.139 92.016 385.963 91.184 385.963 89.936V88.16H381.547V106.88ZM404.304 96.128C407.472 96.128 409.76 96.688 411.168 97.808C412.576 98.896 413.28 100.528 413.28 102.704C413.28 105.072 412.384 106.88 410.592 108.128C408.8 109.376 406.256 110 402.96 110H396.768C396.032 110 395.52 109.824 395.232 109.472C394.976 109.088 394.848 108.512 394.848 107.744V88.16C394.848 87.392 394.976 86.832 395.232 86.48C395.52 86.096 396.032 85.904 396.768 85.904C397.856 85.904 398.64 86.208 399.12 86.816C399.6 87.424 399.84 88.432 399.84 89.84V96.128H404.304ZM402.768 107.84C404.56 107.84 405.888 107.456 406.752 106.688C407.648 105.92 408.096 104.656 408.096 102.896C408.096 101.136 407.632 99.936 406.704 99.296C405.808 98.624 404.496 98.288 402.768 98.288H399.792V107.84H402.768Z" fill="white"/>
</g>
<defs>
<filter id="filter0_d_142_2" x="0" y="10" width="628" height="239" filterUnits="userSpaceOnUse" color-interpolation-filters="sRGB">
<feFlood flood-opacity="0" result="BackgroundImageFix"/>
<feColorMatrix in="SourceAlpha" type="matrix" values="0 0 0 0 0 0 0 0 0 0 0 0 0 0 0 0 0 0 127 0" result="hardAlpha"/>
<feOffset dy="30"/>
<feGaussianBlur stdDeviation="25"/>
<feComposite in2="hardAlpha" operator="out"/>
<feColorMatrix type="matrix" values="0 0 0 0 0.941667 0 0 0 0 0.783451 0 0 0 0 0.476326 0 0 0 0.41 0"/>
<feBlend mode="normal" in2="BackgroundImageFix" result="effect1_dropShadow_142_2"/>
<feBlend mode="normal" in="SourceGraphic" in2="effect1_dropShadow_142_2" result="shape"/>
</filter>
<filter id="filter1_d_142_2" x="81" y="0" width="470" height="219" filterUnits="userSpaceOnUse" color-interpolation-filters="sRGB">
<feFlood flood-opacity="0" result="BackgroundImageFix"/>
<feColorMatrix in="SourceAlpha" type="matrix" values="0 0 0 0 0 0 0 0 0 0 0 0 0 0 0 0 0 0 127 0" result="hardAlpha"/>
<feOffset dy="10"/>
<feGaussianBlur stdDeviation="20"/>
<feComposite in2="hardAlpha" operator="out"/>
<feColorMatrix type="matrix" values="0 0 0 0 0 0 0 0 0 0 0 0 0 0 0 0 0 0 0.25 0"/>
<feBlend mode="normal" in2="BackgroundImageFix" result="effect1_dropShadow_142_2"/>
<feBlend mode="normal" in="SourceGraphic" in2="effect1_dropShadow_142_2" result="shape"/>
</filter>
<linearGradient id="paint0_linear_142_2" x1="316" y1="91" x2="316" y2="-174" gradientUnits="userSpaceOnUse">
<stop offset="0.0239582" stop-color="#CD852F"/>
<stop offset="0.398958" stop-color="#2C1904"/>
</linearGradient>
</defs>
</svg>
