<svg width="628" height="239" viewBox="0 0 628 239" fill="none" xmlns="http://www.w3.org/2000/svg">
<g filter="url(#filter0_d_142_2)">
<rect x="50" y="68" width="91" height="29" rx="14.5" fill="#CD852F"/>
<rect x="487" y="68" width="91" height="29" rx="14.5" fill="#CD852F"/>
<rect x="121" y="20" width="390" height="139" rx="28" fill="url(#paint0_linear_142_2)"/>
<path d="M219.135 96.592C220.159 96.944 221.055 97.2 221.823 97.36C222.623 97.488 223.615 97.552 224.799 97.552C226.591 97.552 228.063 97.184 229.215 96.448C230.399 95.712 231.263 94.784 231.807 93.664C232.383 92.512 232.671 91.312 232.671 90.064C232.671 88.176 232.111 86.656 230.991 85.504C229.871 84.32 227.887 83.728 225.039 83.728H220.575C220.351 83.728 220.175 83.6 220.047 83.344C219.919 83.088 219.855 82.784 219.855 82.432C219.855 82.08 219.919 81.776 220.047 81.52C220.175 81.232 220.351 81.088 220.575 81.088H225.087C229.503 81.088 231.711 78.864 231.711 74.416C231.711 72.624 231.103 71.184 229.887 70.096C228.671 68.976 227.007 68.416 224.895 68.416C223.071 68.416 221.375 68.592 219.807 68.944V71.632C219.807 72.752 219.567 73.552 219.087 74.032C218.639 74.512 217.951 74.752 217.023 74.752C216.319 74.752 215.791 74.56 215.439 74.176C215.119 73.792 214.959 73.184 214.959 72.352V69.616C214.959 68.912 215.087 68.416 215.343 68.128C215.631 67.808 216.159 67.52 216.927 67.264C219.775 66.4 222.751 65.968 225.855 65.968C229.695 65.968 232.511 66.768 234.303 68.368C236.095 69.936 236.991 71.952 236.991 74.416C236.991 76.528 236.431 78.208 235.311 79.456C234.223 80.672 232.799 81.552 231.039 82.096V82.384C235.743 83.12 238.095 85.68 238.095 90.064C238.095 91.728 237.647 93.312 236.751 94.816C235.855 96.32 234.431 97.568 232.479 98.56C230.527 99.52 228.047 100 225.039 100C223.439 100 221.855 99.872 220.287 99.616C218.719 99.328 217.343 98.944 216.159 98.464C215.423 98.144 214.927 97.856 214.671 97.6C214.415 97.312 214.287 96.832 214.287 96.16V93.28C214.287 91.744 214.975 90.976 216.351 90.976C217.279 90.976 217.967 91.216 218.415 91.696C218.895 92.144 219.135 92.912 219.135 94V96.592ZM258.721 95.44C257.665 97.008 256.449 98.16 255.073 98.896C253.729 99.632 252.129 100 250.273 100C247.905 100 246.097 99.424 244.849 98.272C243.633 97.088 243.025 95.504 243.025 93.52C243.025 91.088 243.921 89.088 245.713 87.52C247.537 85.92 250.673 85.12 255.121 85.12H258.625V83.776C258.625 81.6 258.241 80.064 257.473 79.168C256.737 78.272 255.521 77.824 253.825 77.824C252.225 77.824 250.817 78.496 249.601 79.84C248.577 80.96 247.601 81.52 246.673 81.52C246.129 81.52 245.713 81.376 245.425 81.088C245.137 80.768 244.993 80.368 244.993 79.888C244.993 79.28 245.217 78.768 245.665 78.352C246.113 77.936 246.769 77.552 247.633 77.2C248.657 76.784 249.809 76.464 251.089 76.24C252.401 76.016 253.633 75.904 254.785 75.904C257.089 75.904 258.881 76.224 260.161 76.864C261.473 77.504 262.385 78.448 262.897 79.696C263.409 80.944 263.665 82.576 263.665 84.592V97.744C263.665 98.512 263.537 99.088 263.281 99.472C263.025 99.824 262.529 100 261.793 100C260.737 100 259.985 99.648 259.537 98.944C259.089 98.208 258.865 97.056 258.865 95.488L258.721 95.44ZM255.889 87.136C250.641 87.136 248.017 89.04 248.017 92.848C248.017 95.472 249.409 96.784 252.193 96.784C253.057 96.784 253.985 96.576 254.977 96.16C256.001 95.712 256.865 95.072 257.569 94.24C258.305 93.376 258.673 92.352 258.673 91.168V87.136H255.889ZM277.58 86.224L285.98 77.872C286.716 77.168 287.34 76.672 287.852 76.384C288.396 76.064 288.956 75.904 289.532 75.904C289.98 75.904 290.316 76.016 290.54 76.24C290.764 76.464 290.876 76.752 290.876 77.104C290.876 77.68 290.652 78.192 290.204 78.64C289.756 79.088 289.004 79.664 287.948 80.368C286.892 81.04 285.836 81.824 284.78 82.72C283.596 83.744 282.54 84.704 281.612 85.6L280.748 86.416L290.204 97.552C290.78 98.224 291.068 98.736 291.068 99.088C291.068 99.376 290.924 99.6 290.636 99.76C290.348 99.92 289.724 100 288.764 100C287.708 100 286.94 99.888 286.46 99.664C285.98 99.44 285.532 99.056 285.116 98.512L277.148 88.48H275.996V96.592C275.996 97.968 275.756 98.88 275.276 99.328C274.828 99.776 274.044 100 272.924 100C272.188 100 271.676 99.824 271.388 99.472C271.132 99.088 271.004 98.512 271.004 97.744V78.16C271.004 77.392 271.132 76.832 271.388 76.48C271.676 76.096 272.188 75.904 272.924 75.904C274.012 75.904 274.796 76.208 275.276 76.816C275.756 77.424 275.996 78.432 275.996 79.84V86.224H277.58ZM309.768 95.44C308.712 97.008 307.496 98.16 306.12 98.896C304.776 99.632 303.176 100 301.32 100C298.952 100 297.144 99.424 295.896 98.272C294.68 97.088 294.072 95.504 294.072 93.52C294.072 91.088 294.968 89.088 296.76 87.52C298.584 85.92 301.72 85.12 306.168 85.12H309.672V83.776C309.672 81.6 309.288 80.064 308.52 79.168C307.784 78.272 306.568 77.824 304.872 77.824C303.272 77.824 301.864 78.496 300.648 79.84C299.624 80.96 298.648 81.52 297.72 81.52C297.176 81.52 296.76 81.376 296.472 81.088C296.184 80.768 296.04 80.368 296.04 79.888C296.04 79.28 296.264 78.768 296.712 78.352C297.16 77.936 297.816 77.552 298.68 77.2C299.704 76.784 300.856 76.464 302.136 76.24C303.448 76.016 304.68 75.904 305.832 75.904C308.136 75.904 309.928 76.224 311.208 76.864C312.52 77.504 313.432 78.448 313.944 79.696C314.456 80.944 314.712 82.576 314.712 84.592V97.744C314.712 98.512 314.584 99.088 314.328 99.472C314.072 99.824 313.576 100 312.84 100C311.784 100 311.032 99.648 310.584 98.944C310.136 98.208 309.912 97.056 309.912 95.488L309.768 95.44ZM306.936 87.136C301.688 87.136 299.064 89.04 299.064 92.848C299.064 95.472 300.456 96.784 303.24 96.784C304.104 96.784 305.032 96.576 306.024 96.16C307.048 95.712 307.912 95.072 308.616 94.24C309.352 93.376 309.72 92.352 309.72 91.168V87.136H306.936ZM323.683 95.248C324.131 96.24 324.723 96.96 325.459 97.408C326.195 97.856 327.379 98.08 329.011 98.08C332.403 98.08 334.099 96.4 334.099 93.04C334.099 91.44 333.539 90.32 332.419 89.68C331.331 89.008 329.971 88.672 328.339 88.672H325.459C325.139 88.672 324.899 88.56 324.739 88.336C324.611 88.08 324.547 87.792 324.547 87.472C324.547 86.8 324.851 86.464 325.459 86.464H328.435C329.939 86.464 331.107 86.064 331.939 85.264C332.771 84.464 333.187 83.312 333.187 81.808C333.187 80.592 332.803 79.632 332.035 78.928C331.299 78.192 330.291 77.824 329.011 77.824C327.891 77.824 326.979 78.064 326.275 78.544C325.603 79.024 325.043 79.648 324.595 80.416C324.243 81.024 323.859 81.488 323.443 81.808C323.059 82.096 322.547 82.24 321.907 82.24C321.427 82.24 321.011 82.08 320.659 81.76C320.339 81.44 320.179 81.024 320.179 80.512C320.179 79.808 320.403 79.216 320.851 78.736C321.331 78.224 321.971 77.744 322.771 77.296C323.475 76.912 324.451 76.592 325.699 76.336C326.947 76.048 328.067 75.904 329.059 75.904C335.171 75.904 338.227 77.824 338.227 81.664C338.227 83.008 337.795 84.192 336.931 85.216C336.099 86.24 334.803 86.944 333.043 87.328V87.52C334.931 87.648 336.419 88.208 337.507 89.2C338.595 90.16 339.139 91.408 339.139 92.944C339.139 95.12 338.227 96.848 336.403 98.128C334.579 99.376 331.843 100 328.195 100C326.851 100 325.587 99.856 324.403 99.568C323.251 99.248 322.291 98.848 321.523 98.368C320.787 97.888 320.211 97.408 319.795 96.928C319.379 96.416 319.171 95.808 319.171 95.104C319.171 94.592 319.363 94.176 319.747 93.856C320.163 93.504 320.595 93.328 321.043 93.328C322.227 93.328 323.107 93.968 323.683 95.248ZM358.752 95.44C357.696 97.008 356.48 98.16 355.104 98.896C353.76 99.632 352.16 100 350.304 100C347.936 100 346.128 99.424 344.88 98.272C343.664 97.088 343.056 95.504 343.056 93.52C343.056 91.088 343.952 89.088 345.744 87.52C347.568 85.92 350.704 85.12 355.152 85.12H358.656V83.776C358.656 81.6 358.272 80.064 357.504 79.168C356.768 78.272 355.552 77.824 353.856 77.824C352.256 77.824 350.848 78.496 349.632 79.84C348.608 80.96 347.632 81.52 346.704 81.52C346.16 81.52 345.744 81.376 345.456 81.088C345.168 80.768 345.024 80.368 345.024 79.888C345.024 79.28 345.248 78.768 345.696 78.352C346.144 77.936 346.8 77.552 347.664 77.2C348.688 76.784 349.84 76.464 351.12 76.24C352.432 76.016 353.664 75.904 354.816 75.904C357.12 75.904 358.912 76.224 360.192 76.864C361.504 77.504 362.416 78.448 362.928 79.696C363.44 80.944 363.696 82.576 363.696 84.592V97.744C363.696 98.512 363.568 99.088 363.312 99.472C363.056 99.824 362.56 100 361.824 100C360.768 100 360.016 99.648 359.568 98.944C359.12 98.208 358.896 97.056 358.896 95.488L358.752 95.44ZM355.92 87.136C350.672 87.136 348.048 89.04 348.048 92.848C348.048 95.472 349.44 96.784 352.224 96.784C353.088 96.784 354.016 96.576 355.008 96.16C356.032 95.712 356.896 95.072 357.6 94.24C358.336 93.376 358.704 92.352 358.704 91.168V87.136H355.92ZM381.547 96.88C381.547 98.16 381.339 99.008 380.923 99.424C380.507 99.808 379.803 100 378.811 100C377.915 100 377.307 99.824 376.987 99.472C376.699 99.088 376.555 98.512 376.555 97.744V78.16H372.235V79.936C372.235 81.184 372.043 82.016 371.659 82.432C371.307 82.816 370.619 83.008 369.595 83.008C368.923 83.008 368.459 82.848 368.203 82.528C367.947 82.176 367.819 81.664 367.819 80.992V77.392C367.819 76.4 368.331 75.904 369.355 75.904H388.843C389.867 75.904 390.379 76.4 390.379 77.392V80.992C390.379 81.664 390.251 82.176 389.995 82.528C389.739 82.848 389.275 83.008 388.603 83.008C387.579 83.008 386.875 82.816 386.491 82.432C386.139 82.016 385.963 81.184 385.963 79.936V78.16H381.547V96.88ZM404.304 86.128C407.472 86.128 409.76 86.688 411.168 87.808C412.576 88.896 413.28 90.528 413.28 92.704C413.28 95.072 412.384 96.88 410.592 98.128C408.8 99.376 406.256 100 402.96 100H396.768C396.032 100 395.52 99.824 395.232 99.472C394.976 99.088 394.848 98.512 394.848 97.744V78.16C394.848 77.392 394.976 76.832 395.232 76.48C395.52 76.096 396.032 75.904 396.768 75.904C397.856 75.904 398.64 76.208 399.12 76.816C399.6 77.424 399.84 78.432 399.84 79.84V86.128H404.304ZM402.768 97.84C404.56 97.84 405.888 97.456 406.752 96.688C407.648 95.92 408.096 94.656 408.096 92.896C408.096 91.136 407.632 89.936 406.704 89.296C405.808 88.624 404.496 88.288 402.768 88.288H399.792V97.84H402.768Z" fill="white"/>
</g>
<defs>
<filter id="filter0_d_142_2" x="0" y="0" width="628" height="239" filterUnits="userSpaceOnUse" color-interpolation-filters="sRGB">
<feFlood flood-opacity="0" result="BackgroundImageFix"/>
<feColorMatrix in="SourceAlpha" type="matrix" values="0 0 0 0 0 0 0 0 0 0 0 0 0 0 0 0 0 0 127 0" result="hardAlpha"/>
<feOffset dy="30"/>
<feGaussianBlur stdDeviation="25"/>
<feComposite in2="hardAlpha" operator="out"/>
<feColorMatrix type="matrix" values="0 0 0 0 0.941667 0 0 0 0 0.783451 0 0 0 0 0.476326 0 0 0 0.41 0"/>
<feBlend mode="normal" in2="BackgroundImageFix" result="effect1_dropShadow_142_2"/>
<feBlend mode="normal" in="SourceGraphic" in2="effect1_dropShadow_142_2" result="shape"/>
</filter>
<linearGradient id="paint0_linear_142_2" x1="316" y1="81" x2="316" y2="-184" gradientUnits="userSpaceOnUse">
<stop offset="0.0239582" stop-color="#CD852F"/>
<stop offset="0.398958" stop-color="#2C1904"/>
</linearGradient>
</defs>
</svg>
